<svg width="126" height="42" xmlns="http://www.w3.org/2000/svg"><title>hastebin</title><g style="fill:#fff"><path style="font-style:italic;font-weight:600;font-size:28px;font-family:&quot;Nunito Sans&quot;,Quicksand,&quot;Varela Round&quot;,&quot;Arial Rounded MT Bold&quot;,&quot;SF Pro Rounded&quot;,system-ui,&quot;-apple-system&quot;,&quot;Segoe UI&quot;,Arial,sans-serif;letter-spacing:-.6;fill:#b9d6dd" d="M22.943 18.432q0 .738-.41 2.693L20.865 29h-3.308l1.695-8.094q.273-1.463.273-1.79 0-1.846-1.668-1.846-.888 0-1.886.71-.985.698-1.75 1.846-.752 1.149-.998 2.338L11.76 29H8.438l4.416-20.727h3.308l-2.078 9.721h.055q1.134-1.586 2.515-2.46 1.381-.876 2.762-.876 1.75 0 2.639.998.888.985.888 2.776M36.357 29h-3.35q0-.342.082-1.244.082-.916.165-1.408h-.055q-.862 1.257-1.49 1.832-.616.56-1.34.861t-1.64.3q-1.997 0-3.104-1.407-1.108-1.409-1.108-3.897 0-2.543 1.19-4.84 1.203-2.297 3.199-3.418 2.01-1.12 4.676-1.12 2.2 0 5.236.655l-1.928 9.133q-.205.971-.369 2.393-.164 1.408-.164 2.16m-1.258-11.662q-.847-.205-1.873-.205-1.558 0-2.748.82-1.19.807-1.914 2.461-.725 1.654-.725 3.459 0 1.367.52 2.12.533.737 1.545.737 1.476 0 2.652-1.544 1.19-1.545 1.737-4.088zm14.303.642q-.602-.355-1.436-.615-.82-.26-1.64-.26-1.149 0-1.723.493-.56.478-.56 1.244 0 .683.464 1.135.465.45 1.34.93 1.777.997 2.42 1.9.656.902.656 2.119 0 1.326-.697 2.31-.684.985-2.01 1.545t-3.24.56q-1.04 0-2.201-.232-1.163-.232-1.778-.56l.547-2.707q.752.451 1.777.765 1.04.315 1.997.315 1.203 0 1.79-.451.588-.451.588-1.244 0-.616-.41-1.067-.396-.451-1.558-1.08-1.545-.834-2.256-1.764-.697-.93-.697-2.187 0-1.285.656-2.297.67-1.025 1.914-1.6 1.258-.574 2.98-.574 1.026 0 1.996.192.985.177 1.655.45zm10.556-.437h-3.404l-1.34 6.33q-.246 1.19-.246 1.6 0 .629.287.916.287.273.943.273.629 0 1.914-.492l-.547 2.584q-1.367.533-2.707.533-3.24 0-3.24-3.158 0-.793.287-2.078l1.367-6.508H51.03L51.632 15h2.173l.725-3.35 3.473-.916L57.114 15h3.432zm12.867.902q0 2.53-2.352 3.733-2.352 1.19-7.137 1.244l-.027.15v.274q0 1.422.848 2.215.847.779 2.365.779 1.039 0 2.215-.37 1.19-.382 2.174-.97l-.547 2.72q-2.065 1.122-4.553 1.122-2.72 0-4.252-1.518-1.518-1.517-1.518-4.28 0-2.378 1.04-4.442 1.039-2.079 2.898-3.254 1.86-1.19 4.074-1.19 2.201 0 3.486 1.04 1.286 1.038 1.286 2.747m-3.2.082q0-.683-.505-1.08-.493-.41-1.368-.41-1.449 0-2.625 1.19t-1.545 2.925q6.043 0 6.043-2.625" transform="translate(.255 4.358)scale(1.08756)"/><path d="M86.703 19.895q0 .93-.191 1.996-.192 1.052-.616 2.105-.423 1.04-1.08 2.01-.656.97-1.586 1.709-.916.738-2.132 1.19-1.203.437-2.735.437-.629 0-1.299-.096-.67-.082-1.312-.246-.643-.164-1.23-.396-.588-.233-1.067-.534l4.211-19.797h2.27l-1.409 6.7-.314 1.408q-.15.738-.3 1.312h.026q.438-.697.93-1.257.492-.561 1.053-.957.574-.397 1.217-.602.656-.219 1.422-.219 1.996 0 3.062 1.367 1.08 1.368 1.08 3.87m-2.297.054q0-.78-.15-1.408-.137-.629-.451-1.066-.301-.438-.78-.67-.478-.233-1.162-.233-.861 0-1.654.506t-1.45 1.34-1.134 1.887-.697 2.146l-.916 4.361q.465.26 1.162.438.71.178 1.463.178.97 0 1.777-.315.807-.328 1.45-.888t1.12-1.3q.479-.737.793-1.558.315-.834.465-1.709.164-.888.164-1.709m8.451 8.996q-.342.11-.78.178-.423.068-.847.068-1.38 0-2.064-.683-.684-.697-.684-1.86 0-.341.068-.806.069-.465.22-1.149L90.805 15h2.27l-2.051 9.748q-.123.574-.178.889-.04.314-.04.533 0 .56.3.861.314.287.984.287.356 0 .616-.04.273-.042.505-.124zm1.6-18.935q0 .615-.424 1.053-.41.437-1.026.437-.601 0-1.052-.424-.438-.437-.438-1.066 0-.63.438-1.026.45-.396 1.052-.396t1.026.41q.424.397.424 1.012m13.66 8.49q0 .205-.055.56-.041.356-.123.766-.069.41-.15.82-.07.397-.137.684L106.025 29h-2.27l1.71-8.203q.054-.219.108-.506.055-.287.096-.574t.069-.52q.027-.246.027-.383 0-1.039-.506-1.64-.492-.602-1.477-.602-.902 0-1.79.533-.89.534-1.641 1.354-.752.82-1.3 1.805-.532.984-.724 1.9L96.864 29h-2.27l2.161-9.994q.11-.533.219-1.108.11-.587.205-1.12.096-.548.164-1.012.068-.465.11-.766h2.187q-.069.533-.164 1.121-.096.574-.164 1.067-.082.574-.178 1.12h.055q.478-.751 1.052-1.408.588-.67 1.258-1.162.684-.506 1.436-.793.765-.287 1.6-.287.93 0 1.599.287.67.274 1.107.78.452.505.657 1.216.218.711.218 1.559" style="font-style:italic;font-size:28px;font-family:&quot;Nunito Sans&quot;,Quicksand,&quot;Varela Round&quot;,&quot;Arial Rounded MT Bold&quot;,&quot;SF Pro Rounded&quot;,system-ui,&quot;-apple-system&quot;,&quot;Segoe UI&quot;,Arial,sans-serif;letter-spacing:-.6;fill:#b9d6dd" transform="translate(.255 4.358)scale(1.08756)"/></g></svg>